<mxfile host="app.diagrams.net" agent="Mozilla/5.0 (Windows NT 10.0; Win64; x64) AppleWebKit/537.36 (KHTML, like Gecko) Chrome/122.0.0.0 Safari/537.36" version="28.1.1">
  <diagram name="Static Website Hosting" id="BB4VtoV52Q03SJ15ja8T">
    <mxGraphModel dx="1426" dy="777" grid="1" gridSize="10" guides="1" tooltips="1" connect="1" arrows="1" fold="1" page="1" pageScale="1" pageWidth="827" pageHeight="1169" math="0" shadow="0">
      <root>
        <mxCell id="0" />
        <mxCell id="1" parent="0" />
        <mxCell id="GGp4izXvl6N_7gUdqWkK-1" value="AWS Cloud" style="points=[[0,0],[0.25,0],[0.5,0],[0.75,0],[1,0],[1,0.25],[1,0.5],[1,0.75],[1,1],[0.75,1],[0.5,1],[0.25,1],[0,1],[0,0.75],[0,0.5],[0,0.25]];outlineConnect=0;gradientColor=none;html=1;whiteSpace=wrap;fontSize=12;fontStyle=0;container=1;pointerEvents=0;collapsible=0;recursiveResize=0;shape=mxgraph.aws4.group;grIcon=mxgraph.aws4.group_aws_cloud_alt;strokeColor=#232F3E;fillColor=none;verticalAlign=top;align=left;spacingLeft=30;fontColor=#232F3E;dashed=0;" vertex="1" parent="1">
          <mxGeometry x="170" y="479" width="620" height="311" as="geometry" />
        </mxCell>
        <mxCell id="GGp4izXvl6N_7gUdqWkK-3" value="" style="sketch=0;points=[[0,0,0],[0.25,0,0],[0.5,0,0],[0.75,0,0],[1,0,0],[0,1,0],[0.25,1,0],[0.5,1,0],[0.75,1,0],[1,1,0],[0,0.25,0],[0,0.5,0],[0,0.75,0],[1,0.25,0],[1,0.5,0],[1,0.75,0]];outlineConnect=0;fontColor=#232F3E;fillColor=#7AA116;strokeColor=#ffffff;dashed=0;verticalLabelPosition=bottom;verticalAlign=top;align=center;html=1;fontSize=12;fontStyle=0;aspect=fixed;shape=mxgraph.aws4.resourceIcon;resIcon=mxgraph.aws4.s3;" vertex="1" parent="GGp4izXvl6N_7gUdqWkK-1">
          <mxGeometry x="30" y="50" width="78" height="78" as="geometry" />
        </mxCell>
        <mxCell id="GGp4izXvl6N_7gUdqWkK-6" value="EventBridge Rule" style="text;strokeColor=none;fillColor=none;html=1;fontSize=18;fontStyle=1;verticalAlign=middle;align=center;" vertex="1" parent="GGp4izXvl6N_7gUdqWkK-1">
          <mxGeometry x="179" y="128" width="100" height="40" as="geometry" />
        </mxCell>
        <mxCell id="GGp4izXvl6N_7gUdqWkK-7" value="S3 Bucket" style="text;strokeColor=none;fillColor=none;html=1;fontSize=18;fontStyle=1;verticalAlign=middle;align=center;" vertex="1" parent="GGp4izXvl6N_7gUdqWkK-1">
          <mxGeometry x="19" y="128" width="100" height="40" as="geometry" />
        </mxCell>
        <mxCell id="GGp4izXvl6N_7gUdqWkK-8" value="" style="edgeStyle=orthogonalEdgeStyle;html=1;endArrow=block;elbow=vertical;startArrow=none;endFill=1;strokeColor=#545B64;rounded=0;" edge="1" parent="GGp4izXvl6N_7gUdqWkK-1">
          <mxGeometry width="100" relative="1" as="geometry">
            <mxPoint x="109" y="88.5" as="sourcePoint" />
            <mxPoint x="190" y="89" as="targetPoint" />
          </mxGeometry>
        </mxCell>
        <mxCell id="GGp4izXvl6N_7gUdqWkK-9" value="" style="edgeStyle=orthogonalEdgeStyle;html=1;endArrow=block;elbow=vertical;startArrow=none;endFill=1;strokeColor=#545B64;rounded=0;" edge="1" parent="GGp4izXvl6N_7gUdqWkK-1">
          <mxGeometry width="100" relative="1" as="geometry">
            <mxPoint x="269" y="88.5" as="sourcePoint" />
            <mxPoint x="350" y="89" as="targetPoint" />
          </mxGeometry>
        </mxCell>
        <mxCell id="GGp4izXvl6N_7gUdqWkK-13" value="" style="sketch=0;points=[[0,0,0],[0.25,0,0],[0.5,0,0],[0.75,0,0],[1,0,0],[0,1,0],[0.25,1,0],[0.5,1,0],[0.75,1,0],[1,1,0],[0,0.25,0],[0,0.5,0],[0,0.75,0],[1,0.25,0],[1,0.5,0],[1,0.75,0]];outlineConnect=0;fontColor=#232F3E;fillColor=#ED7100;strokeColor=#ffffff;dashed=0;verticalLabelPosition=bottom;verticalAlign=top;align=center;html=1;fontSize=12;fontStyle=0;aspect=fixed;shape=mxgraph.aws4.resourceIcon;resIcon=mxgraph.aws4.lambda;" vertex="1" parent="GGp4izXvl6N_7gUdqWkK-1">
          <mxGeometry x="350" y="50" width="78" height="78" as="geometry" />
        </mxCell>
        <mxCell id="GGp4izXvl6N_7gUdqWkK-14" value="Lambda" style="text;strokeColor=none;fillColor=none;html=1;fontSize=18;fontStyle=1;verticalAlign=middle;align=center;" vertex="1" parent="GGp4izXvl6N_7gUdqWkK-1">
          <mxGeometry x="339" y="128" width="100" height="40" as="geometry" />
        </mxCell>
        <mxCell id="GGp4izXvl6N_7gUdqWkK-15" value="" style="edgeStyle=orthogonalEdgeStyle;html=1;endArrow=block;elbow=vertical;startArrow=none;endFill=1;strokeColor=#545B64;rounded=0;" edge="1" parent="GGp4izXvl6N_7gUdqWkK-1">
          <mxGeometry width="100" relative="1" as="geometry">
            <mxPoint x="428" y="88.5" as="sourcePoint" />
            <mxPoint x="509" y="89" as="targetPoint" />
          </mxGeometry>
        </mxCell>
        <mxCell id="GGp4izXvl6N_7gUdqWkK-17" value="" style="sketch=0;points=[[0,0,0],[0.25,0,0],[0.5,0,0],[0.75,0,0],[1,0,0],[0,1,0],[0.25,1,0],[0.5,1,0],[0.75,1,0],[1,1,0],[0,0.25,0],[0,0.5,0],[0,0.75,0],[1,0.25,0],[1,0.5,0],[1,0.75,0]];outlineConnect=0;fontColor=#232F3E;fillColor=#E7157B;strokeColor=#ffffff;dashed=0;verticalLabelPosition=bottom;verticalAlign=top;align=center;html=1;fontSize=12;fontStyle=0;aspect=fixed;shape=mxgraph.aws4.resourceIcon;resIcon=mxgraph.aws4.sqs;" vertex="1" parent="GGp4izXvl6N_7gUdqWkK-1">
          <mxGeometry x="510" y="50" width="78" height="78" as="geometry" />
        </mxCell>
        <mxCell id="GGp4izXvl6N_7gUdqWkK-18" value="SQS" style="text;strokeColor=none;fillColor=none;html=1;fontSize=18;fontStyle=1;verticalAlign=middle;align=center;" vertex="1" parent="GGp4izXvl6N_7gUdqWkK-1">
          <mxGeometry x="499" y="128" width="100" height="40" as="geometry" />
        </mxCell>
        <mxCell id="GGp4izXvl6N_7gUdqWkK-16" value="" style="sketch=0;points=[[0,0,0],[0.25,0,0],[0.5,0,0],[0.75,0,0],[1,0,0],[0,1,0],[0.25,1,0],[0.5,1,0],[0.75,1,0],[1,1,0],[0,0.25,0],[0,0.5,0],[0,0.75,0],[1,0.25,0],[1,0.5,0],[1,0.75,0]];outlineConnect=0;fontColor=#232F3E;fillColor=#E7157B;strokeColor=#ffffff;dashed=0;verticalLabelPosition=bottom;verticalAlign=top;align=center;html=1;fontSize=12;fontStyle=0;aspect=fixed;shape=mxgraph.aws4.resourceIcon;resIcon=mxgraph.aws4.sns;" vertex="1" parent="GGp4izXvl6N_7gUdqWkK-1">
          <mxGeometry x="510" y="181" width="78" height="78" as="geometry" />
        </mxCell>
        <mxCell id="GGp4izXvl6N_7gUdqWkK-19" value="SNS" style="text;strokeColor=none;fillColor=none;html=1;fontSize=18;fontStyle=1;verticalAlign=middle;align=center;" vertex="1" parent="GGp4izXvl6N_7gUdqWkK-1">
          <mxGeometry x="499" y="259" width="100" height="40" as="geometry" />
        </mxCell>
        <mxCell id="GGp4izXvl6N_7gUdqWkK-20" value="" style="edgeStyle=orthogonalEdgeStyle;html=1;endArrow=block;elbow=vertical;startArrow=none;endFill=1;strokeColor=#545B64;rounded=0;entryX=0;entryY=0.5;entryDx=0;entryDy=0;entryPerimeter=0;exitX=1;exitY=0.5;exitDx=0;exitDy=0;exitPerimeter=0;" edge="1" parent="GGp4izXvl6N_7gUdqWkK-1" source="GGp4izXvl6N_7gUdqWkK-13" target="GGp4izXvl6N_7gUdqWkK-16">
          <mxGeometry width="100" relative="1" as="geometry">
            <mxPoint x="430" y="155" as="sourcePoint" />
            <mxPoint x="511" y="155.5" as="targetPoint" />
          </mxGeometry>
        </mxCell>
        <mxCell id="GGp4izXvl6N_7gUdqWkK-21" value="" style="sketch=0;points=[[0,0,0],[0.25,0,0],[0.5,0,0],[0.75,0,0],[1,0,0],[0,1,0],[0.25,1,0],[0.5,1,0],[0.75,1,0],[1,1,0],[0,0.25,0],[0,0.5,0],[0,0.75,0],[1,0.25,0],[1,0.5,0],[1,0.75,0]];outlineConnect=0;fontColor=#232F3E;fillColor=#E7157B;strokeColor=#ffffff;dashed=0;verticalLabelPosition=bottom;verticalAlign=top;align=center;html=1;fontSize=12;fontStyle=0;aspect=fixed;shape=mxgraph.aws4.resourceIcon;resIcon=mxgraph.aws4.eventbridge;" vertex="1" parent="GGp4izXvl6N_7gUdqWkK-1">
          <mxGeometry x="190" y="50" width="78" height="78" as="geometry" />
        </mxCell>
        <mxCell id="GGp4izXvl6N_7gUdqWkK-10" value="" style="sketch=0;outlineConnect=0;fontColor=#232F3E;gradientColor=none;fillColor=#232F3D;strokeColor=none;dashed=0;verticalLabelPosition=bottom;verticalAlign=top;align=center;html=1;fontSize=12;fontStyle=0;aspect=fixed;pointerEvents=1;shape=mxgraph.aws4.user;" vertex="1" parent="1">
          <mxGeometry x="30" y="529" width="78" height="78" as="geometry" />
        </mxCell>
        <mxCell id="GGp4izXvl6N_7gUdqWkK-11" value="User" style="text;strokeColor=none;fillColor=none;html=1;fontSize=18;fontStyle=1;verticalAlign=middle;align=center;" vertex="1" parent="1">
          <mxGeometry x="19" y="607" width="100" height="40" as="geometry" />
        </mxCell>
        <mxCell id="GGp4izXvl6N_7gUdqWkK-12" value="" style="edgeStyle=orthogonalEdgeStyle;html=1;endArrow=block;elbow=vertical;startArrow=none;endFill=1;strokeColor=#545B64;rounded=0;" edge="1" parent="1">
          <mxGeometry width="100" relative="1" as="geometry">
            <mxPoint x="108" y="567.5" as="sourcePoint" />
            <mxPoint x="200" y="568" as="targetPoint" />
          </mxGeometry>
        </mxCell>
      </root>
    </mxGraphModel>
  </diagram>
</mxfile>
